<svg width="64" height="64" viewBox="0 0 64 64" fill="none" xmlns="http://www.w3.org/2000/svg">
<path d="M32 63C14.8792 63 1 49.1208 1 32C1 14.8792 14.8792 1 32 1C49.1208 1 63 14.8792 63 32C63 49.1208 49.1208 63 32 63Z" fill="white" stroke="black" stroke-width="2"/>
<g filter="url(#filter0_d)">
<path d="M8.5 49L11.5 13L20.5 42.5V4.5L28 23.5M35 39L43.5 56C54.8168 48.9134 57.8162 45.6682 54.5 39C51.4739 32.2408 46.5092 33.2656 35 39ZM35 39C43.1963 35.2212 48 29.5 47 26C46 22.5 41.0266 15.894 28 23.5M35 39L28 23.5" stroke="black" stroke-width="1.5"/>
</g>
<defs>
<filter id="filter0_d" x="4.75256" y="4.22464" width="51.7692" height="56.8492" filterUnits="userSpaceOnUse" color-interpolation-filters="sRGB">
<feFlood flood-opacity="0" result="BackgroundImageFix"/>
<feColorMatrix in="SourceAlpha" type="matrix" values="0 0 0 0 0 0 0 0 0 0 0 0 0 0 0 0 0 0 127 0"/>
<feOffset dx="-2" dy="3"/>
<feGaussianBlur stdDeviation="0.5"/>
<feColorMatrix type="matrix" values="0 0 0 0 0 0 0 0 0 0 0 0 0 0 0 0 0 0 0.33 0"/>
<feBlend mode="normal" in2="BackgroundImageFix" result="effect1_dropShadow"/>
<feBlend mode="normal" in="SourceGraphic" in2="effect1_dropShadow" result="shape"/>
</filter>
</defs>
</svg>
